<svg width="2919" height="1136" xmlns="http://www.w3.org/2000/svg" xmlns:xlink="http://www.w3.org/1999/xlink" xml:space="preserve" overflow="hidden"><g transform="translate(-605 -1031)"><g><path d="M1283 1839.84 3465.18 1841.02C3468.03 1841.02 3470.34 1843.33 3470.34 1846.18 3470.33 1849.03 3468.02 1851.33 3465.18 1851.33L3465.18 1851.33 1283 1850.16C1280.15 1850.15 1277.84 1847.84 1277.84 1845 1277.85 1842.15 1280.15 1839.84 1283 1839.84ZM3460.02 1830.7 3490.95 1846.19 3460 1861.64Z" fill="#F07F09" fill-rule="nonzero" fill-opacity="1"/><text fill="#F9B268" fill-opacity="1" font-family="Century Gothic,Century Gothic_MSFontService,sans-serif" font-style="normal" font-variant="normal" font-weight="400" font-stretch="normal" font-size="83" text-anchor="start" direction="ltr" writing-mode="lr-tb" unicode-bidi="normal" text-decoration="none" transform="matrix(1 0 0 1 1512.79 1679)">Prompt Engineering</text><text fill="#F9B268" fill-opacity="1" font-family="Century Gothic,Century Gothic_MSFontService,sans-serif" font-style="normal" font-variant="normal" font-weight="700" font-stretch="normal" font-size="83" text-anchor="start" direction="ltr" writing-mode="lr-tb" unicode-bidi="normal" text-decoration="none" transform="matrix(1 0 0 1 1614.46 1292)">RAG / Agents</text><text fill="#F9B268" fill-opacity="1" font-family="Century Gothic,Century Gothic_MSFontService,sans-serif" font-style="normal" font-variant="normal" font-weight="400" font-stretch="normal" font-size="83" text-anchor="start" direction="ltr" writing-mode="lr-tb" unicode-bidi="normal" text-decoration="none" transform="matrix(1 0 0 1 2970.96 1292)">Both</text><path d="M5.15625-2.2306e-06 5.1566 808.456C5.1566 811.303 2.84807 813.612 0.00035197 813.612-2.84737 813.612-5.1559 811.303-5.1559 808.456L-5.15625 2.2306e-06C-5.15625-2.84772-2.84772-5.15625-2.2306e-06-5.15625 2.84772-5.15625 5.15625-2.84772 5.15625-2.2306e-06ZM15.4691 803.3 0.000360892 834.237-15.4684 803.3Z" fill="#F07F09" fill-rule="nonzero" fill-opacity="1" transform="matrix(1 0 0 -1 1338 1900.24)"/><text fill="#F9B268" fill-opacity="1" font-family="Century Gothic,Century Gothic_MSFontService,sans-serif" font-style="normal" font-variant="normal" font-weight="700" font-stretch="normal" font-size="83" text-anchor="start" direction="ltr" writing-mode="lr-tb" unicode-bidi="normal" text-decoration="none" transform="matrix(1 0 0 1 2854.3 1703)">Fine Tuning</text><text fill="#F9B268" fill-opacity="1" font-family="Century Gothic,Century Gothic_MSFontService,sans-serif" font-style="normal" font-variant="normal" font-weight="400" font-stretch="normal" font-size="83" text-anchor="start" direction="ltr" writing-mode="lr-tb" unicode-bidi="normal" text-decoration="none" transform="matrix(1 0 0 1 656.518 1447)">Context </text><text fill="#F9B268" fill-opacity="1" font-family="Century Gothic,Century Gothic_MSFontService,sans-serif" font-style="normal" font-variant="normal" font-weight="400" font-stretch="normal" font-size="83" text-anchor="start" direction="ltr" writing-mode="lr-tb" unicode-bidi="normal" text-decoration="none" transform="matrix(1 0 0 1 1000.27 1447)">Opt</text><text fill="#F9B268" fill-opacity="1" font-family="Century Gothic,Century Gothic_MSFontService,sans-serif" font-style="normal" font-variant="normal" font-weight="400" font-stretch="normal" font-size="83" text-anchor="start" direction="ltr" writing-mode="lr-tb" unicode-bidi="normal" text-decoration="none" transform="matrix(1 0 0 1 2493.24 2000)">LLM opt</text><text fill="#F9B268" fill-opacity="1" font-family="Century Gothic,Century Gothic_MSFontService,sans-serif" font-style="normal" font-variant="normal" font-weight="400" font-stretch="normal" font-size="83" text-anchor="start" direction="ltr" writing-mode="lr-tb" unicode-bidi="normal" text-decoration="none" transform="matrix(1 0 0 1 2205.37 2099)">Model</text><text fill="#F9B268" fill-opacity="1" font-family="Malgun Gothic,Malgun Gothic_MSFontService,sans-serif" font-style="normal" font-variant="normal" font-weight="400" font-stretch="normal" font-size="83" text-anchor="start" direction="ltr" writing-mode="lr-tb" unicode-bidi="normal" text-decoration="none" transform="matrix(1 0 0 1 2462.03 2099)">의</text><text fill="#F9B268" fill-opacity="1" font-family="Malgun Gothic,Malgun Gothic_MSFontService,sans-serif" font-style="normal" font-variant="normal" font-weight="400" font-stretch="normal" font-size="83" text-anchor="start" direction="ltr" writing-mode="lr-tb" unicode-bidi="normal" text-decoration="none" transform="matrix(1 0 0 1 2567.45 2099)">동작을</text><text fill="#F9B268" fill-opacity="1" font-family="Malgun Gothic,Malgun Gothic_MSFontService,sans-serif" font-style="normal" font-variant="normal" font-weight="400" font-stretch="normal" font-size="83" text-anchor="start" direction="ltr" writing-mode="lr-tb" unicode-bidi="normal" text-decoration="none" transform="matrix(1 0 0 1 2837.87 2099)">바꾸기</text></g></g></svg>